<?xml version="1.0" encoding="utf-8"?>
<!-- Generator: Adobe Illustrator 27.0.0, SVG Export Plug-In . SVG Version: 6.00 Build 0)  -->
<svg version="1.1" id="_图层_1" xmlns="http://www.w3.org/2000/svg" xmlns:xlink="http://www.w3.org/1999/xlink" x="0px" y="0px"
	 viewBox="0 0 374.4 190.1" style="enable-background:new 0 0 374.4 190.1;" xml:space="preserve">
<g>
	<path d="M99.6,95c0.1,17.1-2.3,33.9-8.7,49.9c-3.1,7.8-7.1,15.2-12.6,21.6c-3.2,3.8-6.9,7.2-11.2,9.7c-9.9,5.7-19.9,5.7-29.8-0.1
		c-5.3-3.1-9.5-7.3-13.1-12.1c-6.9-9.1-11.3-19.4-14.4-30.3c-4.1-14.6-5.6-29.4-5-44.6C5.5,74.9,7.8,61,12.7,47.7
		c3.3-8.8,7.5-17.1,13.7-24.3c3.6-4.2,7.7-7.9,12.7-10.4c8.7-4.4,17.5-4.5,26.2,0c6.1,3.1,10.8,7.6,14.9,13
		c6.6,8.7,10.9,18.5,14,28.9c3.2,10.7,4.9,21.6,5.4,32.8C99.7,90,99.6,92.5,99.6,95z M8.4,94.4c0,12.1,1.2,23,3.9,33.8
		c2.7,10.8,6.6,21,13,30.2c3.7,5.3,8.1,9.9,13.7,13.2c9,5.1,18,5.1,26.8-0.2c2.5-1.5,4.9-3.4,7-5.4c6.8-6.5,11.3-14.4,14.7-23
		c4.9-12.2,7.4-24.9,8.3-38c1-14.9-0.3-29.5-4-43.9C89.1,50.6,85,40.7,78.7,32c-3.5-4.8-7.5-9-12.6-12c-9.1-5.4-18.3-5.4-27.4-0.1
		c-3.2,1.9-6,4.3-8.5,7c-5.8,6.2-9.9,13.5-13.1,21.3C10.9,63.4,8.5,79.2,8.4,94.4z"/>
	<path d="M217.6,32.7c0.9,0,1.5,0,2.1,0c14.9,0,29.9,0,44.8,0c4.2,0,7.9,1.2,10.9,4.2c7.3,7.2,5.2,19.3-4,23.7
		c-0.7,0.3-1.4,0.6-2.4,1.1c3.1,4.2,6.1,8.2,9.4,12.5c-0.7,0.1-1.2,0.3-1.7,0.3c-2.3,0-4.6-0.1-7,0c-1.3,0.1-2.1-0.4-2.8-1.4
		c-2.3-3.2-4.8-6.4-7.2-9.6c-0.8-1.1-1.6-1.5-3-1.5c-7.3,0.1-14.5,0-21.8,0c-0.9,0-1.7,0-2.8,0c0-2.8,0-5.5,0-8.5
		c0.8,0,1.7-0.1,2.5-0.1c10,0,20,0,30,0c3.4,0,5.8-1.8,6.5-4.9c0.8-3.4-1.8-6.9-5.3-7.2c-0.6,0-1.1,0-1.7,0c-11.9,0-23.8,0-35.7,0
		c-0.8,0-1.6,0.1-2.5,0.1c0,11,0,21.9,0,32.9c-2.9,0-5.5,0-8.3,0C217.6,60.4,217.6,46.7,217.6,32.7z"/>
	<path d="M165.7,32.7c4.6,0,9.3-0.1,13.9,0C190.2,33,199,42,199.4,52.6c0.4,11.3-8.4,21.7-21,21.7c-8.6,0.1-17.3,0.1-25.9,0
		c-11.3-0.1-20.4-9.1-20.7-20.4c-0.2-10.5,6.9-18.6,15.9-20.7c1.9-0.5,3.9-0.5,5.9-0.6C157.7,32.6,161.7,32.7,165.7,32.7
		C165.7,32.7,165.7,32.7,165.7,32.7z M165.7,41.2c-4.2,0-8.5,0-12.7,0c-1.1,0-2.3,0-3.3,0.3c-6.9,1.8-9.8,8.1-9.3,13.1
		c0.7,6.4,5.9,11.1,12.3,11.2c8.5,0,17.1,0,25.6,0c7.1,0,12.5-5.4,12.5-12.4c0-7.1-6.2-12.5-12.4-12.2
		C174.2,41.4,170,41.2,165.7,41.2z"/>
	<path d="M369.6,74.4c-3.3,0-6.3,0.1-9.3-0.1c-0.5,0-1.2-0.7-1.5-1.3c-1.7-3-3.3-6-5-9c-0.4-0.7-0.8-1.4-1.2-2.2
		c-12.5,0-24.9,0-37.8,0c1.6-3,3.1-5.7,4.6-8.5c9.4,0,18.8,0,28.7,0c-1.9-3.3-3.5-6.4-5.4-9.1c-1.4-2-3.7-3-6.3-3
		c-3.8,0-7.7,0.1-11.5,0c-4-0.1-6.8,1.8-8.7,5.2c-3.1,5.8-6.3,11.6-9.5,17.5c-1.6,2.9-3.3,5.9-4.8,8.9c-0.6,1.3-1.4,1.7-2.8,1.6
		c-2.6-0.1-5.2,0-8.1,0c0.3-0.8,0.5-1.4,0.8-1.9c5.7-10.5,11.3-20.9,17-31.3c3-5.5,7.7-8.4,14-8.4c5,0,10.1-0.1,15.1,0
		c5.9,0.1,10.5,2.8,13.3,7.9c6,10.7,11.8,21.6,17.6,32.4C369.2,73.3,369.4,73.7,369.6,74.4z"/>
	<path d="M346.9,150.5c2.1-11.2,4.2-22.2,6.3-33.3c3.2,0,6.2,0,9.4,0c-2.1,11.1-4.1,22.1-6.2,33.3c4.1,0.2,8,0,12.1,0.1
		c0,2.1,0,4.1,0,6.1c-1.6,0.5-48.1,0.7-51.6,0.1c0-0.9,0-2,0-3c0-1,0-2,0-3.3c4.2,0,8.1,0,12.3,0c-1.1-5.8-2.1-11.4-3.2-16.9
		c-1-5.5-2-10.9-3.1-16.6c3.2,0,6.1,0,9.4,0c2.1,11,4.2,22.1,6.3,33.3C341.4,150.5,344,150.5,346.9,150.5z"/>
	<path d="M169,157.3c-3.7,0-7.2,0-10.6,0c-5,0-9.9,0-14.9,0c-6.1,0-9.9-3.8-9.9-9.9c0-13.8,0-27.6,0-41.4c0-3.4,1.3-4.7,4.6-4.7
		c11.7,0,23.3,0,35,0c0.6,0,1.2,0.1,2.1,0.1c-0.7,2.2-1.3,4.2-2.1,6.5c-0.9,0-1.8,0-2.6,0c-7.7,0-15.5,0-23.2,0
		c-3.1,0-3.6,0.5-3.6,3.7c0,11.8,0,23.6,0,35.4c0,3,0.7,3.7,3.6,3.7c6.9,0,13.9,0,20.8,0c0.8,0,1.6,0,2.7,0
		C170.4,152.9,169.7,155,169,157.3z"/>
	<path d="M294.2,133.8c-3.2,0.6-6,1.1-8.9,1.6c0-2.3,0-4.3,0-6.5c3-0.6,5.8-1.2,8.8-1.8c0-5.6,0-11,0-16.7c-3,0-5.8,0-8.8,0
		c0-2.3,0-4.3,0-6.6c2.9,0,5.7,0,8.8,0c0-2,0-3.8,0-5.7c3.5,0,6.7,0,10.2,0c0,1.8,0,3.5,0,5.6c3.1,0,6,0,9,0c0,2.3,0,4.4,0,6.6
		c-2.9,0-5.8,0-8.8,0c0,5,0,9.7,0,14.8c2.9-0.5,5.7-1,8.8-1.5c0,2.1,0,4.2,0,6.5c-2.8,0.6-5.7,1.2-8.8,1.8c0,0.7-0.1,1.5-0.1,2.3
		c0,4.4-0.2,8.8,0,13.2c0.2,6-4.3,10.3-10.2,10.1c-2.9-0.1-5.9,0-8.9,0c0-2.3,0-4.2,0-6.6c1.1,0,2.3,0,3.4,0c1,0,2.1,0.1,3.1,0
		c1.4-0.1,2.3-0.9,2.4-2.2C294.3,143.6,294.2,138.8,294.2,133.8z"/>
	<path d="M190,117.2c3.1,0,6.1,0,9.3,0c-1.4,4.2-2.7,8.3-4.1,12.7c3.1,0,6,0,9,0c0.8,2.3,1.5,4.4,2.2,6.5c1.3,3.9,2.5,7.9,3.9,11.8
		c0.7,2,1.2,2.4,3.3,2.4c1,0,2.1,0,3.1,0.1c0.1,0,0.1,0.1,0.3,0.3c0,1.9,0,3.9,0,6.1c-3.1,0-6.2,0.3-9.1-0.1
		c-3.3-0.4-5.1-2.7-6.1-5.7c-1.9-6-3.9-12-5.8-18c-0.2-0.7-0.5-1.3-0.9-2.6c-0.4,1.1-0.8,1.8-1,2.5c-1.9,5.9-3.8,11.8-5.8,17.7
		c-1.5,4.5-3.9,6.3-8.7,6.3c-2,0-4.1,0-6.6,0c0.8-2.4,1.4-4.4,2-6.3c0.3-0.2,0.5-0.3,0.6-0.3c3.4-0.2,3.4-0.2,4.5-3.5
		c3-9.2,6-18.5,9-27.7C189.5,118.7,189.8,118,190,117.2z"/>
	<path d="M165.7,129.2c3.2,5.1,6.3,10,9.7,15.5c-3.4,0-6.3,0.1-9.2-0.1c-0.5,0-1-0.7-1.4-1.2c-1-1.5-2-3.1-3-4.6
		c-0.3-0.5-0.7-1-1.2-1.7c-1.3,2.1-2.6,4-3.8,6c-0.7,1.2-1.6,1.6-2.9,1.6c-2.4-0.1-4.9,0-7.9,0c3.4-5.4,6.5-10.4,9.8-15.5
		c-3.2-5-6.3-10.1-9.7-15.4c3.5,0,6.6,0,9.8,0c1.5,2.3,3.1,4.7,4.8,7.4c1.7-2.6,3.3-5,4.9-7.5c3.2,0,6.2,0,9.8,0
		C172,119.1,168.9,124.2,165.7,129.2z"/>
	<path d="M213,121.4c-3.2,0-6.1,0-9.3,0c0.7-2.3,1.4-4.4,2-6.5c0.5-1.5,1-3,1.5-4.5c0.5-1.8,0-2.5-1.7-2.5c-5.9-0.1-11.8,0-17.8,0
		c-0.5,1.5-1.1,2.9-1.6,4.4c-3.1,0-6.1,0-9.3,0c1.6-4.8,3.1-9.5,4.6-14.2c3.1,0,6.1,0,9.3,0c-0.3,1.1-0.5,2.1-0.7,3.3
		c1.4,0,2.7,0,4,0c5.6,0,11.2,0,16.8,0c4.5,0,7.5,3.7,6.3,8C215.8,113.3,214.4,117.3,213,121.4z"/>
	<path d="M337.6,98c3.5,0,6.8,0,10.2,0c0,1.8,0,3.6,0,5.6c6.5,0,12.7,0,19.2,0c0,2.3,0,4.3,0,6.3c-1.7,0.5-44.5,0.7-48.5,0.2
		c0-1-0.1-2-0.1-3c0-1,0-2.1,0-3.4c6.4,0,12.7,0,19.2,0C337.6,101.7,337.6,99.9,337.6,98z"/>
	<path d="M92.5,93.7c0,15.7-2.1,29.9-7.4,43.4c-2.9,7.4-6.6,14.4-12.1,20.2c-2.3,2.4-4.9,4.7-7.7,6.5c-8.7,5.5-17.6,5.4-26.4,0
		c-4.8-3-8.6-7.1-11.8-11.8c-5.8-8.5-9.5-17.9-11.8-27.8c-5.2-22.7-4.7-45.2,2.6-67.3c2.9-9,7.1-17.3,13.6-24.3
		c2-2.1,4.3-4.1,6.7-5.8c9.1-6.3,19.4-6.1,28.4,0.2c4.7,3.2,8.3,7.4,11.4,12.2c5.6,8.5,9,17.9,11.3,27.8
		C91.6,76.2,92.6,85.5,92.5,93.7z M75.2,74.9c0.1-5.4-0.6-11.9-2.1-18.3c-1.5-6.6-3.7-12.9-7.6-18.5c-1.9-2.7-4.1-5.1-7-6.8
		c-4.2-2.4-8.6-2.5-12.7,0.1c-1.9,1.2-3.6,2.7-5,4.4c-3.9,4.4-6.3,9.8-8,15.4c-4.5,15-4.7,30.2-1.2,45.4c1.5,6.5,3.9,12.6,7.9,18.1
		c1.6,2.2,3.5,4.2,5.8,5.6c4.6,2.9,9.2,2.9,13.7-0.1c2-1.4,3.8-3.2,5.4-5.1c2.6-3.1,4.3-6.7,5.8-10.4C73.8,95.5,75.2,85.9,75.2,74.9
		z M40.1,146.1c0,6.7,5.5,12.2,12.2,12.2c6.7,0,12.2-5.5,12.2-12.2c0-5.5-4.1-12.2-12.2-12.2C44.7,133.9,40.2,140,40.1,146.1z"/>
</g>
</svg>
